<?xml version="1.0" encoding="UTF-8"?>
<!DOCTYPE svg PUBLIC "-//W3C//DTD SVG 1.1//EN" "http://www.w3.org/Graphics/SVG/1.1/DTD/svg11.dtd">
<!-- Creator: CorelDRAW X7 -->
<svg xmlns="http://www.w3.org/2000/svg" xml:space="preserve" width="4.0588mm" height="4.0514mm" version="1.1" style="shape-rendering:geometricPrecision; text-rendering:geometricPrecision; image-rendering:optimizeQuality; fill-rule:evenodd; clip-rule:evenodd"
viewBox="0 0 49 49"
 xmlns:xlink="http://www.w3.org/1999/xlink">
 <defs>
  <style type="text/css">
   <![CDATA[
    .fil0 {fill:#2B2A29}
   ]]>
  </style>
 </defs>
 <g id="Layer_x0020_1">
  <metadata id="CorelCorpID_0Corel-Layer"/>
  <g id="_1430389525392">
   <g id="Group_1" data-name="Group 1">
    <path id="search-icon"  className="fil0" d="M49 46l-14 -14c3,-4 4,-8 4,-12 0,-11 -9,-20 -19,-20 -11,0 -20,9 -20,20 0,10 9,19 20,19 4,0 8,-1 12,-4l14 14c0,0 1,0 1,0 1,0 2,-1 2,-2 0,0 0,-1 0,-1l0 0zm-29 -11c-9,0 -16,-7 -16,-16 0,-8 7,-15 16,-15 8,0 15,7 15,15 0,5 -2,8 -5,11 -2,3 -6,5 -10,5 0,0 0,0 0,0l0 0z"/>
   </g>
  </g>
 </g>
</svg>
