<svg xmlns="http://www.w3.org/2000/svg" width="50" height="50" viewBox="0 0 50 50"><path d="M47.4,29.167h-2.6V20.833a4.108,4.108,0,0,0-4.167-4.167H27.6a3.833,3.833,0,0,0-4.167,4.167v8.333h-2.6a2.46,2.46,0,0,0-2.6,2.6v7.812A3.833,3.833,0,0,0,22.4,43.75l-1.562,4.167H13.021c0-1.562-2.083-3.125-3.646-3.125H7.292V6.771a5.538,5.538,0,0,1,4.688-5.208c2.6,0,5.208,1.563,5.208,4.167V6.25c-1.042,0-1.562,1.563-1.562,2.6L16.146,9.9l-2.083,4.167a.977.977,0,0,0,0,1.563c0,.521.521.521,1.042.521h.521L23.438,15.1q.781,0,1.563-1.562a1.913,1.913,0,0,0-.521-1.562l-3.646-2.6V7.813c0-1.042-1.042-1.562-2.083-2.083h0C18.229,2.083,15.625,0,11.979,0c-3.646.521-6.25,3.125-6.25,6.771V44.792H4.167V43.75a1.818,1.818,0,0,0-1.042-.521.51.51,0,0,0-.521.521v1.563A3.917,3.917,0,0,0,0,48.958,1.12,1.12,0,0,0,1.042,50H48.958a1.042,1.042,0,0,0,0-2.083H46.875L45.833,43.75A4.108,4.108,0,0,0,50,39.583V31.771a2.79,2.79,0,0,0-2.6-2.6ZM23.438,13.542,15.1,14.583l2.083-3.646,2.6-.521,3.646,3.125ZM19.271,8.854l-1.562.521V8.333c-.521-.521,0-.521.521-1.042h0a1.12,1.12,0,0,1,1.042,1.042ZM27.6,18.229H40.625a2.46,2.46,0,0,1,2.6,2.6v8.333a2.864,2.864,0,0,0-1.562,2.6v1.562c-1.042-.521-1.562-1.042-2.6-1.042H35.938l2.083-2.083V29.167H36.979L34.9,31.25V27.6a1.12,1.12,0,0,0-1.042-1.042c-.521,0-.521.521-.521,1.042V31.25L31.25,29.167H30.208c-.521.521-.521,1.042,0,1.042l1.563,2.083h-2.6a3.978,3.978,0,0,0-2.6,1.042V31.771A2.864,2.864,0,0,0,25,29.167V20.833A2.46,2.46,0,0,1,27.6,18.229ZM39.063,33.854a2.46,2.46,0,0,1,2.6,2.6V37.5h-15.1V36.458a2.46,2.46,0,0,1,2.6-2.6Zm1.042,9.9,2.6,4.167H25.521L27.6,43.75Zm1.563-1.562h-15.1V39.063h15.1Zm-21.875-2.6V31.771a1.12,1.12,0,0,1,1.042-1.042h3.125A1.12,1.12,0,0,1,25,31.771V42.188H22.4A2.46,2.46,0,0,1,19.792,39.583ZM1.563,47.917a2.864,2.864,0,0,1,2.6-1.562H9.375c1.042,0,1.563.521,2.083,1.563Zm21.354,0,1.042-4.167h2.083l-2.6,4.167Zm21.354,0L42.188,43.75h2.083l1.042,4.167Zm3.646-8.333a2.383,2.383,0,0,1-2.083,2.6h-2.6V31.771a1.818,1.818,0,0,1,.521-1.042H47.4c.521,0,.521.521.521,1.042ZM47.917,39.583Z" fill="#cb4f56" fill-rule="evenodd"/></svg>