<svg xmlns="http://www.w3.org/2000/svg" width="49.463" height="45.333" viewBox="0 0 49.463 45.333"><path d="M229.4,352.668a3.762,3.762,0,0,1,5.742-2.644,3.7,3.7,0,0,1,1.135,1.1,2.37,2.37,0,0,1,2.456,1.491,2.987,2.987,0,0,1,2.183.836,2.785,2.785,0,0,1,0,4.041,3.049,3.049,0,0,1-2.074.836h-8.9A2.911,2.911,0,0,1,227,355.471a2.857,2.857,0,0,1,2.4-2.8Zm1.288.476.011.106a.647.647,0,0,1-.655.635,1.578,1.578,0,0,0-1.255,2.7,1.663,1.663,0,0,0,1.157.465h8.9a1.574,1.574,0,0,0,1.146-2.7,2.148,2.148,0,0,0-1.768-.465h0a.646.646,0,0,1-.655-.571,1.061,1.061,0,0,0-1.179-.92,1.3,1.3,0,0,0-.2.042.68.68,0,0,1-.862-.328,2.45,2.45,0,0,0-3.209-1.174,2.3,2.3,0,0,0-.71.476,2.391,2.391,0,0,0-.721,1.735ZM229.4,376.192a3.31,3.31,0,0,1,5.033-2.264,3.27,3.27,0,0,1,.961.92,2.1,2.1,0,0,1,2.107,1.269,2.521,2.521,0,0,1,1.867,4.316,2.609,2.609,0,0,1-1.834.74h-7.587a2.574,2.574,0,0,1-2.6-2.528,2.508,2.508,0,0,1,2.052-2.454Zm1.288.476a1.9,1.9,0,0,1,.579-1.407,2.012,2.012,0,0,1,2.784,0,1.91,1.91,0,0,1,.4.561.657.657,0,0,0,.851.328.805.805,0,0,1,1,.529.632.632,0,0,1,.033.138.655.655,0,0,0,.655.582h0c.557,0,1-.063,1.441.37a1.243,1.243,0,0,1-.917,2.126h-7.576a1.266,1.266,0,0,1-.906-.37,1.243,1.243,0,0,1,.993-2.126.649.649,0,0,0,.655-.645Zm33.176-3.459a3.769,3.769,0,0,1,5.753-2.644,3.881,3.881,0,0,1,1.124,1.089,2.383,2.383,0,0,1,2.456,1.491,3.013,3.013,0,0,1,2.194.836,2.8,2.8,0,0,1-.011,4.041,2.954,2.954,0,0,1-2.074.836h-8.9A2.9,2.9,0,0,1,261.464,376,2.846,2.846,0,0,1,263.865,373.209Zm1.3.476v.106a.647.647,0,0,1-.655.635,1.579,1.579,0,0,0-1.255,2.7,1.653,1.653,0,0,0,1.157.455h8.9a1.567,1.567,0,0,0,1.146-2.687,2.138,2.138,0,0,0-1.769-.465h0a.655.655,0,0,1-.655-.582,1.056,1.056,0,0,0-1.168-.91.654.654,0,0,0-.207.032.662.662,0,0,1-.852-.317,2.466,2.466,0,0,0-3.22-1.174,2.435,2.435,0,0,0-.71.476,2.306,2.306,0,0,0-.71,1.735Zm-10.425-17.77a4.356,4.356,0,0,1,3.024-1.756,5.44,5.44,0,0,1,5.819-5A5.534,5.534,0,0,1,268,351.811a3.336,3.336,0,0,1,3.777,2.306h.437a4.117,4.117,0,1,1,0,8.229H261.988a12.3,12.3,0,0,1,1.288,5.521,14.05,14.05,0,0,1-2.336,6.7,60.982,60.982,0,0,1-4.8,6.738v2.517a.647.647,0,0,1-.655.635h-1.244l-.677,3.565h.535a.647.647,0,0,1,.655.635v5.194a.647.647,0,0,1-.655.635h-7.849a.65.65,0,0,1-.666-.635v-5.194a.65.65,0,0,1,.666-.635h.524l-.666-3.565H244.75a.65.65,0,0,1-.666-.635V381a.794.794,0,0,1,.022-.159,60.625,60.625,0,0,1-4.694-6.315c-1.474-2.359-2.467-4.643-2.467-6.664a12.972,12.972,0,0,1,13.187-12.756A13.653,13.653,0,0,1,254.739,355.915Zm6.517,5.151a13.117,13.117,0,0,0-5.284-4.622,3.165,3.165,0,0,1,2.445-1.058.647.647,0,0,0,.655-.635l-.011-.159a4.118,4.118,0,0,1,4.061-4.168,4.2,4.2,0,0,1,3.93,2.38.674.674,0,0,0,.862.328,3,3,0,0,1,.295-.074,2.044,2.044,0,0,1,2.358,1.608c.011.042.011.1.022.148a.654.654,0,0,0,.655.571h.972a2.841,2.841,0,1,1,.011,5.68H261.256Zm-9.028,26.951.677-3.565h-5.469l.677,3.565Zm2.6-6.378h-9.421v1.534h9.421Zm-7.663-1.269c-1.976-3.491-4.847-8.726-4.847-12.5a14.565,14.565,0,0,1,2.358-8.219,7.8,7.8,0,0,1,3.373-2.845c-1.386,2.57-1.878,7.394-1.878,11.064,0,3.755,1.059,8.652,1.954,12.5Zm5.316,0a74.411,74.411,0,0,0,1.572-12.5c0-3.67-.48-8.494-1.867-11.064a7.849,7.849,0,0,1,3.362,2.845,14.485,14.485,0,0,1,2.369,8.219c0,3.787-2.6,8.959-4.465,12.5Zm2.445,0h.295c2.544-3.216,6.746-8.663,6.746-12.5a11.438,11.438,0,0,0-6.321-10.154,14.983,14.983,0,0,1,3.581,10.154c0,3.871-2.4,8.864-4.3,12.5Zm-5.458,0h1.67a73.4,73.4,0,0,0,1.6-12.5,33.71,33.71,0,0,0-.939-8.409c-.513-1.893-1.124-3.078-1.692-3.078s-1.168,1.185-1.681,3.078a33.709,33.709,0,0,0-.939,8.409c0,3.723,1.1,8.716,1.976,12.5Zm-4.072,0h.273c-2.009-3.586-4.672-8.621-4.672-12.5a15.037,15.037,0,0,1,3.581-10.154,11.428,11.428,0,0,0-6.31,10.154c0,1.756.917,3.84,2.271,6.008a64.064,64.064,0,0,0,4.858,6.495Zm8.035,8.927H246.9v3.914h6.528V389.3Z" transform="translate(-227 -349.147)" fill="#cb4f56" fill-rule="evenodd"/></svg>