<svg xmlns="http://www.w3.org/2000/svg" width="50.003" height="49.84" viewBox="0 0 50.003 49.84"><g transform="translate(-4 -3.91)"><path d="M44.345.241a3.909,3.909,0,0,1,3.645.3A3.9,3.9,0,0,1,49.813,5.1a20.308,20.308,0,0,1-4.86,7.593L37.967,19.68l1.519,5.164a3.259,3.259,0,0,1,3.341.3,2.59,2.59,0,0,1,0,3.949l-1.519,1.822.911,3.037a2.773,2.773,0,0,1,3.341.607,3.186,3.186,0,0,1,0,3.949l-1.519,1.215.911,3.645c.3.3,0,.607,0,.911L41,48.231a1.116,1.116,0,0,1-.911.3c-.3,0-.3-.3-.607-.3v-.3L30.07,27.577,24.6,33.044a.3.3,0,0,1-.3.3L20.35,36.082,22.78,46.1a1.116,1.116,0,0,1-.3.911l-2.43,2.43a1.116,1.116,0,0,1-.911.3c-.3,0-.3,0-.607-.3h0l-6.075-8.2a3.082,3.082,0,0,1-3.037-.911h0A2.418,2.418,0,0,1,8.808,37.3L.3,31.222h0c-.3-.3-.3-.3-.3-.607s0-.607.3-.607l2.734-2.734c0-.3.3-.3.607-.3L13.668,29.4,16.4,25.451c.3,0,.3,0,.3-.3l5.467-5.467L1.822,10.568a.3.3,0,0,0-.3-.3c0-.3-.3-.3-.3-.607s0-.607.3-.607L5.467,5.1a1.116,1.116,0,0,1,.911-.3l3.645.911L11.542,4.19a2.772,2.772,0,0,1,3.645,0,2.845,2.845,0,0,1,.607,3.341l3.341.911,1.519-1.519a3.186,3.186,0,0,1,3.949,0,2.762,2.762,0,0,1,.3,3.341l5.163,1.519L37.056,4.8A18.467,18.467,0,0,1,44.345.241ZM42.219,4.493a3.1,3.1,0,0,1,2.734.607,2.293,2.293,0,0,1,.3,2.43l-.911,1.822-1.822-.911.911-1.822c.3,0,.3-.3,0-.3,0,0-.3-.3-.3,0l-1.822.911L40.4,5.4ZM9.72,35.474l3.037-4.252-8.808-2.43L2.43,30.311Zm8.808,1.519L14.276,40.03l5.164,7.29L20.958,46.1ZM11.846,6.316l2.126.607h0a.924.924,0,0,0,0-1.215.924.924,0,0,0-1.215,0Zm9.112,2.734,2.126.607h0c.607-.3.607-.911,0-1.519a.924.924,0,0,0-1.215,0ZM42.827,35.778l.607,2.126.607-.911a.633.633,0,0,0,0-1.215.924.924,0,0,0-1.215,0Zm-2.734-9.112.607,2.126.911-.911a.924.924,0,0,0,0-1.215,1.356,1.356,0,0,0-1.519,0Zm-16.4-8.5,4.86-4.86L6.378,6.619,3.949,9.353ZM36.448,21.2l-4.86,4.86L40.4,46.1l2.734-2.734ZM17.92,26.666,10.631,37.3a1.936,1.936,0,0,0,0,1.822,1.936,1.936,0,0,0,1.822,0l10.934-7.29,20.35-20.35A23.979,23.979,0,0,0,47.99,4.493a2.035,2.035,0,0,0-.911-2.43,2.568,2.568,0,0,0-2.126,0,17.344,17.344,0,0,0-6.378,3.949l-7.593,7.593L24.6,19.984Z" transform="translate(4 4)" fill="#cb4f56" fill-rule="evenodd"/></g></svg>