<svg xmlns="http://www.w3.org/2000/svg" width="42.238" height="50" viewBox="0 0 42.238 50"><path d="M18.845,43.682a.741.741,0,0,0-.65.722v.9a.741.741,0,0,0,.65.722.633.633,0,0,0,.65-.722v-.9A.633.633,0,0,0,18.845,43.682Zm4.386,0a.741.741,0,0,0-.65.722v.9a.653.653,0,1,0,1.3,0v-.9A.741.741,0,0,0,23.231,43.682Zm-.65-41.7a.633.633,0,0,0-.65.722V3.971H20.307V2.708a.653.653,0,1,0-1.3,0V4.874h0V6.859a.653.653,0,1,0,1.3,0V5.6h1.625V6.859a.633.633,0,0,0,.65.722.741.741,0,0,0,.65-.722V2.708A.741.741,0,0,0,22.581,1.986ZM41.426,24.368h-7.96V12.094a.741.741,0,0,0-.65-.722h-.162V9.567h.812a.741.741,0,0,0,.65-.722V5.6a.741.741,0,0,0-.65-.722H25.343V.722A.741.741,0,0,0,24.693,0h-7.31a.741.741,0,0,0-.65.722V4.874H8.61a.741.741,0,0,0-.65.722V8.845a.741.741,0,0,0,.65.722h.812v1.805h0a.741.741,0,0,0-.65.722v6.5a.741.741,0,0,0,.65.722.741.741,0,0,0,.65-.722V12.816H32.166V25.09h0V41.155h0v7.4H29.729V46.751h.487a.627.627,0,0,0,.65-.722V41.155a.741.741,0,0,0-.65-.722H27.942c-.325,0-.65.361-.65.9v4.693a.627.627,0,0,0,.65.722h.487v1.805H26.155V40.433h.812a.741.741,0,0,0,.65-.722V36.462a.627.627,0,0,0-.65-.722h-11.7a.627.627,0,0,0-.65.722v3.249a.741.741,0,0,0,.65.722h.812v8.123H13.646V46.751h.487a.627.627,0,0,0,.65-.722V41.155a.741.741,0,0,0-.65-.722H12.022c-.487,0-.65.361-.65.9v4.693c0,.542.162.722.65.722h.325v1.805H10.072V21.48a.741.741,0,0,0-.65-.722.741.741,0,0,0-.65.722v2.888H.65A.627.627,0,0,0,0,25.09V41.336a.741.741,0,0,0,.65.722h.812v7.22a.627.627,0,0,0,.65.722H39.964c.487,0,.812-.181.812-.722v-7.22h.65a.771.771,0,0,0,.812-.722V25.09C42.238,24.549,41.913,24.368,41.426,24.368ZM8.773,48.556H2.762v-6.5H8.773Zm0-8.123H1.3V25.812H8.773Zm4.711,4.874h-.812V42.058h.812Zm6.986,3.249H17.383V40.433h3.087Zm4.386,0H21.769V40.433h3.087Zm-8.123-9.747h-.812V37.184h10.4v1.625H16.733Zm12.834,6.5h-.975V42.058h.975ZM18.032,1.444h6.011V5.6h0V8.123H18.032Zm-7.96,6.679h-.65V6.318h7.31V8.123Zm21.282,3.249H10.722V9.567H31.354ZM32,8.123H25.343V6.318h7.473V8.123Zm7.31,40.433H33.466v-6.5h5.848Zm1.462-8.123h-7.31V25.812h7.31ZM15.271,14.621H12.347a.741.741,0,0,0-.65.722v3.249a.741.741,0,0,0,.65.722h2.924a.741.741,0,0,0,.65-.722V15.343A.741.741,0,0,0,15.271,14.621Zm-.65,3.249H13V16.065h1.625Zm.65,3.249H12.347a.741.741,0,0,0-.65.722V25.09a.741.741,0,0,0,.65.722h2.924a.741.741,0,0,0,.65-.722V21.841A.741.741,0,0,0,15.271,21.119Zm-.65,3.249H13V22.563h1.625Zm.65,3.249H12.347a.627.627,0,0,0-.65.722v3.249a.741.741,0,0,0,.65.722h2.924a.741.741,0,0,0,.65-.722V28.339A.627.627,0,0,0,15.271,27.617Zm-.65,3.249H13V29.061h1.625Zm7.96-3.249H19.657c-.487,0-.65.181-.65.722v3.249a.633.633,0,0,0,.65.722h2.924a.741.741,0,0,0,.65-.722V28.339A.627.627,0,0,0,22.581,27.617Zm-.65,3.249H20.307V29.061h1.625Zm.65-9.747H19.657a.633.633,0,0,0-.65.722V25.09a.633.633,0,0,0,.65.722h2.924a.741.741,0,0,0,.65-.722V21.841A.741.741,0,0,0,22.581,21.119Zm-.65,3.249H20.307V22.563h1.625Zm.65-9.747H19.657a.633.633,0,0,0-.65.722v3.249a.633.633,0,0,0,.65.722h2.924a.741.741,0,0,0,.65-.722V15.343A.741.741,0,0,0,22.581,14.621Zm-.65,3.249H20.307V16.065h1.625Zm7.96-3.249H26.968a.633.633,0,0,0-.65.722v3.249a.633.633,0,0,0,.65.722h2.924a.741.741,0,0,0,.65-.722V15.343A.741.741,0,0,0,29.892,14.621Zm-.65,3.249H27.617V16.065h1.625Zm.65,3.249H26.968a.633.633,0,0,0-.65.722V25.09h0a.633.633,0,0,0,.65.722h2.924a.741.741,0,0,0,.65-.722V21.841A.741.741,0,0,0,29.892,21.119Zm-.65,3.249H27.617V22.563h1.625Zm.65,3.249H26.968c-.487,0-.65.181-.65.722v3.249h0a.633.633,0,0,0,.65.722h2.924a.741.741,0,0,0,.65-.722V28.339A.627.627,0,0,0,29.892,27.617Zm-.65,3.249H27.617V29.061h1.625ZM6.5,27.617H3.574a.627.627,0,0,0-.65.722v3.249a.741.741,0,0,0,.65.722H6.5a.741.741,0,0,0,.65-.722V28.339A.627.627,0,0,0,6.5,27.617Zm-.65,3.249H4.224V29.061H5.848Zm.65,3.249H3.574a.627.627,0,0,0-.65.722v3.249a.741.741,0,0,0,.65.722H6.5a.741.741,0,0,0,.65-.722V34.838A.627.627,0,0,0,6.5,34.116Zm-.65,3.069H4.224V35.56H5.848ZM38.5,27.617H35.74c-.487,0-.812.181-.812.722v3.249a.771.771,0,0,0,.812.722H38.5a.771.771,0,0,0,.812-.722V28.339C39.314,27.8,38.989,27.617,38.5,27.617Zm-.65,3.249H36.39V29.061h1.462Zm.65,3.249H35.74c-.487,0-.812.181-.812.722v3.249a.771.771,0,0,0,.812.722H38.5a.771.771,0,0,0,.812-.722V34.838C39.314,34.3,38.989,34.116,38.5,34.116Zm-.65,3.069H36.39V35.56h1.462Z" fill="#cb4f56" fill-rule="evenodd"/></svg>