<svg xmlns="http://www.w3.org/2000/svg" width="55" height="44.827" viewBox="0 0 55 44.827"><path d="M54.379,8.189,44.664.019a1,1,0,0,0-1.406.123,1.039,1.039,0,0,0,.123,1.423l7.608,6.466H24.213A11.948,11.948,0,0,0,12.265,19.978v4.2a1.012,1.012,0,0,0,1,1,1,1,0,0,0,1-1V19.943A9.946,9.946,0,0,1,24.213,10H51.006L43.4,16.447a1,1,0,0,0,1.283,1.546l9.751-8.2a1.022,1.022,0,0,0,.123-1.423l-.123-.123-.053-.035Zm-13.142,11a.99.99,0,0,0-1,1v4.234a9.946,9.946,0,0,1-9.944,9.944H3.5l7.713-6.536.105-.07A1,1,0,1,0,10.35,26a.894.894,0,0,0-.281.228l-.088.105L.142,34.631a1,1,0,0,0-.123,1.406c.035.053.088.088.123.141l9.751,8.2a1,1,0,0,0,1.283-1.546L3.568,36.371H30.292A11.948,11.948,0,0,0,42.239,24.423V20.189A.99.99,0,0,0,41.237,19.188ZM27.287,33.1a10.879,10.879,0,0,1-7.7-3.18,10.5,10.5,0,0,1-1.968-2.671A10.9,10.9,0,0,1,34.684,14.18,10.9,10.9,0,0,1,38.2,22.192,10.933,10.933,0,0,1,27.287,33.1Zm0-1.933a8.939,8.939,0,0,1-6.325-2.618,8.723,8.723,0,0,1-1.634-2.2,8.984,8.984,0,0,1,14.056-10.77,9.265,9.265,0,0,1,2,2.723,8.757,8.757,0,0,1,.9,3.883A9,9,0,0,1,27.287,31.17ZM22.965,21.3l1.6,1.845a1.053,1.053,0,0,1,.264.808l-.211,2.425,2.249-.949a1.164,1.164,0,0,1,.843,0l2.249.949-.211-2.425a1.053,1.053,0,0,1,.264-.808l1.6-1.845-2.372-.545a1.053,1.053,0,0,1-.685-.492l-1.265-2.091L26.022,20.26a1.053,1.053,0,0,1-.685.492Zm7.5,7.52a1.749,1.749,0,0,1-.668-.141L27.287,27.6l-2.512,1.072a1.755,1.755,0,0,1-1.687-.193,1.721,1.721,0,0,1-.7-1.546l.228-2.706-1.775-2.056a1.745,1.745,0,0,1,.914-2.829l2.653-.615,1.406-2.319a1.713,1.713,0,0,1,2.952,0l1.406,2.319,2.653.615a1.745,1.745,0,0,1,.914,2.829L31.961,24.23l.228,2.706a1.721,1.721,0,0,1-.7,1.546,1.766,1.766,0,0,1-1.019.334Z" transform="translate(0.213 0.213)" fill="#cb4f56" fill-rule="evenodd"/></svg>