<svg xmlns="http://www.w3.org/2000/svg" width="42.347" height="50" viewBox="0 0 42.347 50"><path d="M42.537,6.122A7.154,7.154,0,0,0,35.395,0a7.05,7.05,0,0,0-5.612,3.061.707.707,0,0,0,0,1.02c.51.51,1.02,0,1.531,0a5.2,5.2,0,0,1,4.082-2.551c3.061,0,5.1,2.041,5.612,5.1a1.781,1.781,0,0,0,1.02.51h0C42.537,7.143,42.537,6.633,42.537,6.122Z" transform="translate(-14.476)" fill="#cb4f56" fill-rule="evenodd"/><path d="M41.9,26.592,39.347,22H36.286c-.51,0-1.02,0-1.02.51a1.1,1.1,0,0,0,1.02,1.02h2.041l1.531,2.551H5.673L7.2,23.531h1.02c.51,0,.51-.51.51-1.02s0-.51-.51-.51H6.184L3.633,26.592c-.51,0-.51.51,0,.51,0,.51,0,.51.51.51H41.388a.5.5,0,0,0,.51-.51C42.408,27.1,42.408,26.592,41.9,26.592Z" transform="translate(-1.592 -10.776)" fill="#cb4f56" fill-rule="evenodd"/><path d="M57.573,12.061h-.51L45.328,9l-.51.51-.51.51-.51,3.571c-.51.51,0,1.02.51,1.02a1.781,1.781,0,0,0,1.02-.51l.51-3.061,10.2,2.041-1.531,6.633c-.51.51,0,1.02.51,1.02h0c.51,0,1.02,0,1.02-.51l1.531-7.143Z" transform="translate(-21.348 -4.408)" fill="#cb4f56" fill-rule="evenodd"/><path d="M26.327,12.143l-.51-6.633a.5.5,0,0,1-.51-.51H24.8L10.51,6.531c-.51,0-.51.51-.51,1.02l1.02,10.714a1.1,1.1,0,0,0,1.02,1.02h0a1.1,1.1,0,0,0,1.02-1.02l-1.531-10.2,12.755-1.02.51,5.612c0,.51.51.51,1.02.51S26.327,12.653,26.327,12.143Z" transform="translate(-4.898 -2.449)" fill="#cb4f56" fill-rule="evenodd"/><path d="M38.837,23.653,37.306,16.51A.5.5,0,0,0,36.8,16h-.51L22.51,19.061c0,.51-.51.51-.51,1.02l1.02,3.571c0,.51.51,1.02,1.02.51.51,0,.51-.51.51-1.02l-.51-2.551,11.735-2.551,1.531,6.122a1.781,1.781,0,0,0,1.02.51h0C38.837,24.673,39.347,24.163,38.837,23.653Z" transform="translate(-10.776 -7.837)" fill="#cb4f56" fill-rule="evenodd"/><path d="M40.306,30.51c0-.51,0-.51-.51-.51H2.551c-.51,0-1.02,0-1.02.51L0,63.673v.51c.51.51.51.51,1.02.51H41.327c.51,0,.51,0,.51-.51a.5.5,0,0,0,.51-.51ZM1.531,62.653,3.571,31.531h35.2l1.531,31.122Z" transform="translate(0 -14.694)" fill="#cb4f56" fill-rule="evenodd"/><path d="M51.551,36A2.733,2.733,0,0,0,49,38.551a2.551,2.551,0,1,0,5.1,0A2.733,2.733,0,0,0,51.551,36Zm0,3.571a1.1,1.1,0,0,1-1.02-1.02c0-.51.51-.51,1.02-.51s.51,0,.51.51S52.061,39.571,51.551,39.571Z" transform="translate(-24 -17.633)" fill="#cb4f56" fill-rule="evenodd"/><path d="M26.551,36A2.733,2.733,0,0,0,24,38.551,2.41,2.41,0,0,0,26.551,41.1,2.41,2.41,0,0,0,29.1,38.551,2.733,2.733,0,0,0,26.551,36Zm0,3.571a1.1,1.1,0,0,1-1.02-1.02c0-.51.51-.51,1.02-.51s1.02,0,1.02.51A1.1,1.1,0,0,1,26.551,39.571Z" transform="translate(-11.755 -17.633)" fill="#cb4f56" fill-rule="evenodd"/><path d="M40.776,41h0a1.1,1.1,0,0,0-1.02,1.02v4.592a5.662,5.662,0,0,1-5.612,5.612c-3.061,0-5.1-2.551-5.1-5.612V42.02a1.02,1.02,0,1,0-2.041,0v4.592a7.3,7.3,0,0,0,7.143,7.143,6.975,6.975,0,0,0,7.143-7.143V42.02C41.286,41.51,41.286,41,40.776,41Z" transform="translate(-13.224 -20.082)" fill="#cb4f56" fill-rule="evenodd"/></svg>