<svg id="Layer_x0020_1" xmlns="http://www.w3.org/2000/svg" width="241.419" height="52" viewBox="0 0 241.419 52">
  <g id="ABCBanking_CI_x0020_Guideline.pdf">
    <path id="Path_78238" data-name="Path 78238" d="M622.283,3h3.075l6.149,16.041H628.3l-1.2-3.208h-6.684l-1.2,3.208H616Zm1.471,4.278-2.139,5.481h4.278Z" transform="translate(-533.656 -2.599)" fill="#cb4f56"/>
    <path id="Path_78239" data-name="Path 78239" d="M754,19.041V3h2.54a16.745,16.745,0,0,1,3.208.267,4.5,4.5,0,0,1,2.273,1.47,3.732,3.732,0,0,1,.8,2.406,6.773,6.773,0,0,1-.267,1.738,6.3,6.3,0,0,1-1.337,1.337,5.779,5.779,0,0,1,2.139,1.738,4.617,4.617,0,0,1,.668,2.406,5.529,5.529,0,0,1-.668,2.54,5.442,5.442,0,0,1-1.872,1.6,6.341,6.341,0,0,1-3.075.535Zm2.941-13.1V9.283h.668a3.033,3.033,0,0,0,1.738-.4,1.716,1.716,0,0,0,.535-1.337,1.3,1.3,0,0,0-.535-1.2,2.322,2.322,0,0,0-1.6-.4Zm0,6.149v4.144h.8a5.752,5.752,0,0,0,2.674-.535,1.725,1.725,0,0,0,.668-1.47,1.906,1.906,0,0,0-.8-1.6,4.711,4.711,0,0,0-2.674-.535Z" transform="translate(-653.208 -2.599)" fill="#cb4f56"/>
    <path id="Path_78240" data-name="Path 78240" d="M864.64,3.208,862.5,5.213a6.843,6.843,0,0,0-4.946-2.272,5.142,5.142,0,0,0-3.877,1.6,5.142,5.142,0,0,0-1.6,3.877,6.213,6.213,0,0,0,.668,2.807,7.16,7.16,0,0,0,2.005,2.005,7.185,7.185,0,0,0,2.807.668,5.425,5.425,0,0,0,2.54-.535A10.466,10.466,0,0,0,862.5,11.63l2.005,2.139a9.869,9.869,0,0,1-3.342,2.406,7.917,7.917,0,0,1-3.609.668,8.714,8.714,0,0,1-6.149-2.272A8.469,8.469,0,0,1,849,8.422a8.819,8.819,0,0,1,1.069-4.278A8.5,8.5,0,0,1,853.278,1.2,8.293,8.293,0,0,1,857.555,0a9.589,9.589,0,0,1,3.877.8A9.221,9.221,0,0,1,864.64,3.208Z" transform="translate(-735.509)" fill="#cb4f56"/>
    <path id="Path_78241" data-name="Path 78241" d="M1041,19.041V3h2.54a16.744,16.744,0,0,1,3.208.267,4.5,4.5,0,0,1,2.273,1.47,3.222,3.222,0,0,1,.936,2.406,3.7,3.7,0,0,1-.4,1.738,4.2,4.2,0,0,1-1.337,1.337,6.361,6.361,0,0,1,2.273,1.738,4.616,4.616,0,0,1,.668,2.406,4.4,4.4,0,0,1-.8,2.54,5.007,5.007,0,0,1-1.738,1.6,6.683,6.683,0,0,1-3.075.535Zm3.074-13.1V9.283h.668a3.033,3.033,0,0,0,1.738-.4,2.375,2.375,0,0,0,.535-1.337,1.694,1.694,0,0,0-.535-1.2,2.85,2.85,0,0,0-1.6-.4Zm0,6.149v4.144h.668a5.338,5.338,0,0,0,2.673-.535,1.725,1.725,0,0,0,.669-1.47,1.905,1.905,0,0,0-.8-1.6,4.225,4.225,0,0,0-2.54-.535Z" transform="translate(-901.843 -2.599)" fill="#cb4f56"/>
    <path id="Path_78242" data-name="Path 78242" d="M1139.283,3h3.074l6.149,16.041H1145.3l-1.2-3.208h-6.684l-1.2,3.208H1133Zm1.471,4.278-2.139,5.481h4.278Z" transform="translate(-981.545 -2.599)" fill="#cb4f56"/>
    <path id="Path_78243" data-name="Path 78243" d="M1271,3h2.807l7.085,10.56V3h2.941V19.041h-2.807l-7.085-10.56v10.56H1271Z" transform="translate(-1101.098 -2.599)" fill="#cb4f56"/>
    <path id="Path_78244" data-name="Path 78244" d="M1399,3h3.074V8.481L1406.486,3h3.743l-5.748,7.219,6.283,8.823h-3.743l-4.946-7.085v7.085H1399Z" transform="translate(-1211.987 -2.599)" fill="#cb4f56"/>
    <path id="Path_78245" data-name="Path 78245" d="M1505,19.041h3.074V3H1505Z" transform="translate(-1303.818 -2.599)" fill="#cb4f56"/>
    <path id="Path_78246" data-name="Path 78246" d="M1558,3h2.807l7.085,10.56V3h3.075V19.041h-2.941l-6.951-10.56v10.56H1558Z" transform="translate(-1349.733 -2.599)" fill="#cb4f56"/>
    <path id="Path_78247" data-name="Path 78247" d="M1696.506,3.075l-2.139,2.139a6.292,6.292,0,0,0-4.679-2.272,5.441,5.441,0,0,0-4.01,1.6,5.353,5.353,0,0,0-1.6,3.877,5.353,5.353,0,0,0,1.6,3.877,5.977,5.977,0,0,0,4.144,1.6,4.205,4.205,0,0,0,2.674-.668,3.71,3.71,0,0,0,1.738-2.005h-4.679V8.288h8.154v.668a8.167,8.167,0,0,1-1.069,4.01,8.513,8.513,0,0,1-2.807,2.941,9.639,9.639,0,0,1-8.555-.134,7.879,7.879,0,0,1-3.208-3.075A9.645,9.645,0,0,1,1681,8.422a7.984,7.984,0,0,1,2.139-5.614A8.116,8.116,0,0,1,1689.689,0a9.59,9.59,0,0,1,3.877.8A7.63,7.63,0,0,1,1696.506,3.075Z" transform="translate(-1456.29)" fill="#cb4f56"/>
    <path id="Path_78248" data-name="Path 78248" d="M635.506,167.342l-2.139,2.005a6.372,6.372,0,0,0-4.946-2.272,5.824,5.824,0,0,0-3.877,1.47,5.232,5.232,0,0,0-1.47,3.877,5.605,5.605,0,0,0,.668,2.941,3.93,3.93,0,0,0,2.005,1.871,4.942,4.942,0,0,0,2.807.8,7.034,7.034,0,0,0,2.406-.535,7.369,7.369,0,0,0,2.406-1.871l2.139,2.273a20.216,20.216,0,0,1-3.342,2.406,10.4,10.4,0,0,1-3.743.668,7.954,7.954,0,0,1-6.015-2.406A8.257,8.257,0,0,1,620,172.422a7.845,7.845,0,0,1,1.069-4.278,8.156,8.156,0,0,1,3.074-2.941,8.414,8.414,0,0,1,4.411-1.2,9.105,9.105,0,0,1,3.743.936A7.3,7.3,0,0,1,635.506,167.342Z" transform="translate(-537.121 -142.077)" fill="#cb4f56"/>
    <path id="Path_78249" data-name="Path 78249" d="M758.422,164a8.446,8.446,0,0,1,8.288,8.555,7.861,7.861,0,0,1-2.406,5.882,7.7,7.7,0,0,1-5.882,2.54A8.442,8.442,0,0,1,750,172.555a8.693,8.693,0,0,1,4.278-7.352A7.505,7.505,0,0,1,758.422,164Zm0,3.075a5.251,5.251,0,0,0-3.743,1.47,5.441,5.441,0,0,0-1.6,4.01,4.839,4.839,0,0,0,2.005,4.144,4.434,4.434,0,0,0,3.342,1.337,5.058,5.058,0,0,0,3.743-1.6,5.231,5.231,0,0,0,1.47-3.877,5.255,5.255,0,0,0-5.213-5.481Z" transform="translate(-649.743 -142.077)" fill="#cb4f56"/>
    <path id="Path_78250" data-name="Path 78250" d="M899,167h3.208a11.072,11.072,0,0,1,3.743.535,3.593,3.593,0,0,1,1.871,1.6,5.118,5.118,0,0,1,.668,2.54,4.242,4.242,0,0,1-.8,2.674,3.279,3.279,0,0,1-2.272,1.6l3.877,7.218h-3.342l-3.609-6.817h-.4v6.817H899Zm2.941,6.283h1.069a3.994,3.994,0,0,0,2.005-.267,1.408,1.408,0,0,0,.535-1.337,1.931,1.931,0,0,0-.267-.936,1.7,1.7,0,0,0-.8-.535,4.612,4.612,0,0,0-1.6-.134h-.936Z" transform="translate(-778.825 -144.676)" fill="#cb4f56"/>
    <path id="Path_78251" data-name="Path 78251" d="M994,167h3.208a12.026,12.026,0,0,1,3.877.535,3.594,3.594,0,0,1,1.871,1.6,5.12,5.12,0,0,1,.668,2.54,4.412,4.412,0,0,1-.936,2.807,3.894,3.894,0,0,1-2.406,1.6,14.67,14.67,0,0,1-3.208.267v6.817H994Zm3.075,6.283h.936a4.613,4.613,0,0,0,1.6-.134,2.8,2.8,0,0,0,.8-.535,1.932,1.932,0,0,0,.267-.936,1.47,1.47,0,0,0-.8-1.337,5.87,5.87,0,0,0-2.005-.267h-.8Z" transform="translate(-861.126 -144.676)" fill="#cb4f56"/>
    <path id="Path_78252" data-name="Path 78252" d="M1090.422,164a8.446,8.446,0,0,1,8.288,8.555,7.86,7.86,0,0,1-2.406,5.882,7.7,7.7,0,0,1-5.882,2.54,8.442,8.442,0,0,1-8.422-8.422,8.693,8.693,0,0,1,4.277-7.352A7.506,7.506,0,0,1,1090.422,164Zm0,3.075a5.03,5.03,0,0,0-3.743,1.47,5.441,5.441,0,0,0-1.6,4.01,5.091,5.091,0,0,0,1.872,4.144,4.948,4.948,0,0,0,3.475,1.337,5.058,5.058,0,0,0,3.743-1.6,5.824,5.824,0,0,0,1.47-3.877,5.577,5.577,0,0,0-1.47-3.877A5.058,5.058,0,0,0,1090.422,167.075Z" transform="translate(-937.362 -142.077)" fill="#cb4f56"/>
    <path id="Path_78253" data-name="Path 78253" d="M1230,167h3.342a11.708,11.708,0,0,1,3.743.535,3.594,3.594,0,0,1,1.871,1.6,5.118,5.118,0,0,1,.668,2.54,4.242,4.242,0,0,1-.8,2.674,3.6,3.6,0,0,1-2.272,1.6l3.877,7.218h-3.476l-3.609-6.817h-.267v6.817H1230Zm3.074,6.283h.936a4.306,4.306,0,0,0,2.139-.267,1.782,1.782,0,0,0,.535-1.337,1.931,1.931,0,0,0-.267-.936,2.8,2.8,0,0,0-.8-.535,4.612,4.612,0,0,0-1.6-.134h-.936Z" transform="translate(-1065.578 -144.676)" fill="#cb4f56"/>
    <path id="Path_78254" data-name="Path 78254" d="M1323.149,167h3.075l6.283,16.175H1329.3l-1.337-3.342h-6.55l-1.337,3.342H1317Zm1.6,4.278-2.273,5.614h4.411Z" transform="translate(-1140.948 -144.676)" fill="#cb4f56"/>
    <path id="Path_78255" data-name="Path 78255" d="M1438,167h8.956v3.075h-2.941v13.1h-3.074v-13.1H1438Z" transform="translate(-1245.774 -144.676)" fill="#cb4f56"/>
    <path id="Path_78256" data-name="Path 78256" d="M1519,183.175h2.941V167H1519Z" transform="translate(-1315.946 -144.676)" fill="#cb4f56"/>
    <path id="Path_78257" data-name="Path 78257" d="M1570.288,164a8.446,8.446,0,0,1,8.288,8.555,7.861,7.861,0,0,1-2.406,5.882,7.509,7.509,0,0,1-5.882,2.54,8.275,8.275,0,0,1-6.015-2.54,8.765,8.765,0,0,1-2.272-5.882,8.2,8.2,0,0,1,4.144-7.352A7.835,7.835,0,0,1,1570.288,164Zm0,3.075a5.25,5.25,0,0,0-3.743,1.47,5.44,5.44,0,0,0-1.6,4.01,4.839,4.839,0,0,0,2.005,4.144,4.64,4.64,0,0,0,3.342,1.337,5.058,5.058,0,0,0,3.743-1.6,5.353,5.353,0,0,0,1.6-3.877,5.142,5.142,0,0,0-1.6-3.877A5.058,5.058,0,0,0,1570.288,167.075Z" transform="translate(-1353.198 -142.077)" fill="#cb4f56"/>
    <path id="Path_78258" data-name="Path 78258" d="M1708,167h2.807l7.085,10.694V167h3.075v16.175h-2.941l-6.951-10.56v10.56H1708Z" transform="translate(-1479.681 -144.676)" fill="#cb4f56"/>
    <path id="Path_78259" data-name="Path 78259" d="M103.1,117.213h0a16.91,16.91,0,0,0-4.946-4.411,7.084,7.084,0,0,0-3.342-.8,5.158,5.158,0,0,0,0,10.293,7.668,7.668,0,0,0,3.208-.668,18.389,18.389,0,0,0,5.08-4.411Z" transform="translate(-77.969 -97.028)" fill="#cb4f56"/>
    <path id="Path_78260" data-name="Path 78260" d="M352,117.213h0a15.1,15.1,0,0,1,4.946-4.411,7.084,7.084,0,0,1,3.342-.8,5.1,5.1,0,0,1,4.679,5.08,5.242,5.242,0,0,1-4.812,5.213,8.539,8.539,0,0,1-3.208-.668A19.192,19.192,0,0,1,352,117.213Z" transform="translate(-304.946 -97.028)" fill="#cb4f56"/>
    <path id="Path_78261" data-name="Path 78261" d="M68.041,16.654C62.828,10.906,58.55,10.1,54.807,9.97a16.73,16.73,0,0,0-13.769,6.951h0L39.033,19.6l4.545,6.015,1.871-2.674.668-.668.4-.535c.134-.134.4-.267.4-.4,6.149-5.614,12.165-3.609,14.7-.267h0A8.831,8.831,0,0,1,63.5,23.739a10.944,10.944,0,0,1,1.2,5.08,11.694,11.694,0,0,1-2.272,6.55,9.631,9.631,0,0,1-7.887,4.01h0c-4.01.267-7.085-2.272-8.555-4.01-.134,0-.134-.134-.267-.267l-.134-.134h0v-.134l-9.09-11.229L33.954,20.4l-3.075-4.01a17.073,17.073,0,0,0-13.1-6.416h-.668C9.491,10.1,3.075,15.451.8,22.8A20.589,20.589,0,0,0,0,28.551a19.508,19.508,0,0,0,4.144,12.3c5.213,5.614,9.491,6.55,13.234,6.684a17.285,17.285,0,0,0,13.9-7.085h0l1.871-2.54-4.545-6.015-1.871,2.54-.668.8-.4.535-.4.4c-6.149,5.614-12.165,3.476-14.7.267h0a10.3,10.3,0,0,1-1.871-2.807A10.312,10.312,0,0,1,7.62,28.685,11.386,11.386,0,0,1,9.758,22a9.51,9.51,0,0,1,7.887-3.877h0A10.639,10.639,0,0,1,26.2,22c.134.134.134.267.267.4l.134.134h0l.134.134L35.692,33.9l5.614,7.219A17.135,17.135,0,0,0,54.54,47.533h.535c7.62-.134,14.036-5.481,16.308-12.967a19,19,0,0,0,.8-5.614A18.756,18.756,0,0,0,68.041,16.654Z" transform="translate(0 -8.634)" fill="#cb4f56"/>
    <path id="Path_78262" data-name="Path 78262" d="M1321.614,345.614a4.165,4.165,0,0,1-2.406.936,3.2,3.2,0,0,1-3.208-3.342,3.017,3.017,0,0,1,3.208-3.208,4.164,4.164,0,0,1,2.406.936l-.535.4a2.328,2.328,0,0,0-1.871-.668,2.491,2.491,0,0,0-2.674,2.54,2.524,2.524,0,0,0,2.674,2.674,2.639,2.639,0,0,0,1.871-.8Z" transform="translate(-1140.082 -294.55)" fill="#cb4f56"/>
    <path id="Path_78263" data-name="Path 78263" d="M1363,343.342a3.156,3.156,0,0,1,3.342-3.342,3.123,3.123,0,0,1,3.208,3.342,3.087,3.087,0,0,1-3.208,3.208A3.123,3.123,0,0,1,1363,343.342Zm5.882,0a2.614,2.614,0,1,0-5.213,0,2.491,2.491,0,0,0,2.674,2.54A2.456,2.456,0,0,0,1368.882,343.342Z" transform="translate(-1180.799 -294.55)" fill="#cb4f56"/>
    <path id="Path_78264" data-name="Path 78264" d="M1425.213,347.283v-1.069a2.8,2.8,0,0,1-2.272,1.2,2.7,2.7,0,0,1-2.941-2.807V341h.668v3.609a2.006,2.006,0,0,0,2.273,2.139,2.176,2.176,0,0,0,2.272-2.272V341h.535v6.283Z" transform="translate(-1230.18 -295.416)" fill="#cb4f56"/>
    <path id="Path_78265" data-name="Path 78265" d="M1473.668,340.134V341.2a2.627,2.627,0,0,1,2.273-1.2,2.6,2.6,0,0,1,2.807,2.807v3.609h-.535v-3.609a2.106,2.106,0,0,0-2.272-2.272,2.368,2.368,0,0,0-2.273,2.406v3.476H1473v-6.283Z" transform="translate(-1276.095 -294.55)" fill="#cb4f56"/>
    <path id="Path_78266" data-name="Path 78266" d="M1522.005,326v2.005h2.139v.535h-2.139v3.877c0,.8.134,1.47,1.2,1.47a2.479,2.479,0,0,0,.936-.267l.267.535a3.9,3.9,0,0,1-1.2.267c-1.337,0-1.872-.8-1.872-2.005V328.54H1520v-.535h1.337v-1.871Z" transform="translate(-1316.812 -282.422)" fill="#cb4f56"/>
    <path id="Path_78267" data-name="Path 78267" d="M1582,343.342a3.055,3.055,0,0,1,3.208-3.342,3.123,3.123,0,0,1,3.208,3.342,3.087,3.087,0,0,1-3.208,3.208A3.017,3.017,0,0,1,1582,343.342Zm5.748,0a2.535,2.535,0,0,0-2.54-2.807,2.634,2.634,0,0,0-2.673,2.807,2.491,2.491,0,0,0,2.673,2.54A2.385,2.385,0,0,0,1587.748,343.342Z" transform="translate(-1370.524 -294.55)" fill="#cb4f56"/>
    <path id="Path_78268" data-name="Path 78268" d="M1638.668,340.134V341.2a2.626,2.626,0,0,1,2.272-1.2,2.6,2.6,0,0,1,2.807,2.807v3.609h-.535v-3.609a2.106,2.106,0,0,0-2.272-2.272,2.368,2.368,0,0,0-2.272,2.406v3.476H1638v-6.283Z" transform="translate(-1419.038 -294.55)" fill="#cb4f56"/>
    <path id="Path_78269" data-name="Path 78269" d="M1720.213,347.283v-1.069a2.8,2.8,0,0,1-2.272,1.2,2.7,2.7,0,0,1-2.941-2.807V341h.668v3.609a2.006,2.006,0,0,0,2.273,2.139,2.176,2.176,0,0,0,2.272-2.272V341h.535v6.283Z" transform="translate(-1485.745 -295.416)" fill="#cb4f56"/>
    <path id="Path_78270" data-name="Path 78270" d="M1770.678,341.2a2.812,2.812,0,0,0-2.005-.668c-.936,0-1.871.4-1.871,1.2s1.069,1.069,1.871,1.2c1.2.134,2.674.4,2.674,1.871,0,1.337-1.471,1.738-2.674,1.738a2.969,2.969,0,0,1-2.673-1.337l.4-.4a2.747,2.747,0,0,0,2.406,1.069c.668,0,1.871-.134,1.871-1.2.134-.8-.936-1.069-2.005-1.2-1.2-.267-2.54-.4-2.54-1.738,0-1.2,1.337-1.738,2.54-1.738a3.732,3.732,0,0,1,2.406.8Z" transform="translate(-1529.928 -294.55)" fill="#cb4f56"/>
  </g>
</svg>
