<svg id="Powered_By_Giift_Logo" data-name="Powered By Giift Logo" xmlns="http://www.w3.org/2000/svg" width="87.797" height="60" viewBox="0 0 87.797 60">
  <g id="_1992486291568">
    <g id="Giift.svg" transform="translate(0 13.398)">
      <g id="Layer_x0020_1_0">
        <path id="Path_38222" data-name="Path 38222" d="M33.04,609.741c-.14-.815-3.775-1.7-3.169.676,2.144,7.9,8.5,11.254,14.889,11.184,6.361.07,12.815-3.285,14.866-11.184.676-2.377-3.029-1.561-3.169-.676C54.966,619.411,34.6,619.411,33.04,609.741ZM87.8,589.586H80.317v8.435a2.988,2.988,0,0,0,3.146,3.285,8.765,8.765,0,0,0,4.334-1.235v4.66a13.986,13.986,0,0,1-5.965,1.3c-4.334,0-8.015-1.911-8.015-7.666v-8.784H70.857v-1.235l8.645-9.576h.816v6.431H87.8Zm-18.64-4.38v4.38H66.2V605.71H59.766V589.586H56.807v-4.38h2.959V584.18c0-6.035,3.751-9.18,8.971-9.18a33.735,33.735,0,0,1,3.984.419v5.2a23.666,23.666,0,0,0-2.959-.28c-1.981,0-3.565.909-3.565,3.565v1.3Zm-15.635,20.5h-6.5v-20.5h6.5Zm.35-27.145a3.642,3.642,0,0,1-3.565,3.565,3.565,3.565,0,1,1,3.565-3.565ZM42.547,605.71H36.116v-20.5h6.431Zm.28-27.145A3.565,3.565,0,1,1,39.261,575,3.58,3.58,0,0,1,42.826,578.565Zm-12.466,5.546a26.39,26.39,0,0,0-11.371-2.819c-8.295,0-11.184,5.08-11.184,9.53,0,5.429,4.264,8.924,10.555,8.924a11.579,11.579,0,0,0,5.08-1.1v-3.565H19.06v-5.569H31.036v12.419c-2.26,2.33-7.876,4.1-12.815,4.1C7.549,606.106,0,599.675,0,590.565,0,581.361,7.479,575,18.361,575a29,29,0,0,1,12,2.47Z" transform="translate(0 -575)" fill="#000a09" fill-rule="evenodd"/>
      </g>
    </g>
    <path id="Path_38223" data-name="Path 38223" d="M0,25.382H.676V23.239h.885c1.188,0,2-.513,2-1.654C3.565,20.4,2.749,20,1.538,20H0Zm.676-2.7V20.536h.769c.955,0,1.421.256,1.421,1.049,0,.769-.443,1.1-1.375,1.1Z" transform="translate(0 -19.534)" fill="#000a09"/>
    <path id="_1" data-name="1" d="M177.841,79.194a1.882,1.882,0,0,0,1.841-2.074,1.859,1.859,0,1,0-3.681,0A1.882,1.882,0,0,0,177.841,79.194Zm0-.559c-.676,0-1.142-.606-1.142-1.515,0-.932.466-1.561,1.142-1.561.7,0,1.142.629,1.142,1.561C178.982,78.029,178.54,78.635,177.841,78.635Z" transform="translate(-171.899 -73.252)" fill="#000a09"/>
    <path id="_2" data-name="2" d="M359.1,83.984h.792l.559-2.144c.117-.373.186-.746.28-1.142h.047c.093.4.163.769.256,1.142l.583,2.144h.815L363.5,80h-.629l-.583,2.307c-.093.373-.163.746-.256,1.1h-.023c-.093-.35-.186-.722-.28-1.1L361.1,80h-.676l-.606,2.307c-.093.373-.186.746-.28,1.1h-.023c-.07-.35-.14-.722-.233-1.1L358.676,80H358Z" transform="translate(-349.658 -78.136)" fill="#000a09"/>
    <path id="_3" data-name="3" d="M618.934,79.194a2.471,2.471,0,0,0,1.3-.4l-.233-.443a1.875,1.875,0,0,1-1,.3,1.31,1.31,0,0,1-1.328-1.375h2.7c0-.117.023-.256.023-.4,0-1.142-.583-1.887-1.608-1.887A1.947,1.947,0,0,0,617,77.12,1.911,1.911,0,0,0,618.934,79.194Zm-1.258-2.4a1.233,1.233,0,0,1,1.142-1.258c.629,0,.979.443.979,1.258Z" transform="translate(-602.624 -73.252)" fill="#000a09"/>
    <path id="_4" data-name="4" d="M805,79.1h.676V76.538c.28-.676.676-.909,1-.909a2.053,2.053,0,0,1,.4.047l.14-.583a1.242,1.242,0,0,0-.443-.093,1.338,1.338,0,0,0-1.118.839h-.047l-.047-.722H805Z" transform="translate(-786.243 -73.252)" fill="#000a09"/>
    <path id="_5" data-name="5" d="M912.911,79.194a2.489,2.489,0,0,0,1.328-.4l-.233-.443a1.875,1.875,0,0,1-1,.3,1.31,1.31,0,0,1-1.328-1.375h2.7c0-.117.023-.256.023-.4,0-1.142-.583-1.887-1.608-1.887A1.947,1.947,0,0,0,911,77.12,1.907,1.907,0,0,0,912.911,79.194Zm-1.258-2.4a1.268,1.268,0,0,1,1.165-1.258c.629,0,.979.443.979,1.258Z" transform="translate(-889.773 -73.252)" fill="#000a09"/>
    <path id="_6" data-name="6" d="M1088.631,5.942a1.747,1.747,0,0,0,1.212-.559h.023l.07.466h.559V0h-.676V1.538l.023.676a1.673,1.673,0,0,0-1.119-.466A1.9,1.9,0,0,0,1087,3.868C1087,5.2,1087.629,5.942,1088.631,5.942Zm.163-.559c-.7,0-1.1-.583-1.1-1.538,0-.909.489-1.515,1.142-1.515a1.441,1.441,0,0,1,.979.419V4.823A1.394,1.394,0,0,1,1088.794,5.382Z" transform="translate(-1061.672)" fill="#000a09"/>
    <path id="_7" data-name="7" d="M1366.771,5.942c.909,0,1.724-.792,1.724-2.144,0-1.235-.536-2.05-1.584-2.05a2.125,2.125,0,0,0-1.258.559l.023-.722V0H1365V5.848h.559l.046-.4h.023A1.837,1.837,0,0,0,1366.771,5.942Zm-.116-.559a1.578,1.578,0,0,1-.979-.419v-2.1a1.672,1.672,0,0,1,1.072-.536c.745,0,1.048.583,1.048,1.468C1367.8,4.777,1367.307,5.382,1366.655,5.382Z" transform="translate(-1333.195)" fill="#000a09"/>
    <path id="_8" data-name="8" d="M1534.652,85.709c.792,0,1.212-.606,1.491-1.4L1537.635,80h-.652l-.7,2.214c-.116.35-.233.746-.349,1.118h-.023c-.14-.373-.28-.792-.4-1.118L1534.7,80h-.7l1.608,4.008-.093.28c-.163.489-.443.862-.909.862a.717.717,0,0,1-.3-.07l-.117.536A1.268,1.268,0,0,0,1534.652,85.709Z" transform="translate(-1498.257 -78.136)" fill="#000a09"/>
  </g>
</svg>
