<svg xmlns="http://www.w3.org/2000/svg" width="268.006" height="55" viewBox="0 0 268.006 55"><path d="M90.607,8.9C83.613,1.272,77.89.318,72.8,0A22.757,22.757,0,0,0,54.364,9.538h0l-2.543,3.5,6.04,7.948,2.543-3.5.954-.954.636-.954.318-.318c8.266-7.63,16.214-4.769,19.711-.636v.318a14.116,14.116,0,0,1,2.543,3.5,11.49,11.49,0,0,1,1.272,6.676,14.871,14.871,0,0,1-2.861,8.9c-2.543,3.179-6.04,5.4-10.491,5.087h0c-5.087.318-9.538-2.861-11.445-5.087,0-.318,0-.318-.318-.636h0v-.318L48.642,18.121l-3.5-4.133-4.133-5.4A22.794,22.794,0,0,0,23.526,0H22.89A23.393,23.393,0,0,0,1.272,17.168,21.372,21.372,0,0,0,0,24.8,26.456,26.456,0,0,0,5.4,41.329c6.994,7.312,12.717,8.584,17.8,8.9,7.312,0,13.988-3.815,18.439-9.538h0l2.543-3.5-6.04-7.948-2.543,3.5-.954.954-.636.636c0,.318-.318.318-.318.636-8.266,7.312-16.214,4.769-19.711.318h0a14.116,14.116,0,0,1-2.543-3.5,16.6,16.6,0,0,1-1.272-6.676A13.856,13.856,0,0,1,23.526,10.809h0c5.087-.318,9.538,3.179,11.445,5.4a.311.311,0,0,0,.318.318v.318h.318L47.37,31.792,55,41.329a23.1,23.1,0,0,0,17.486,8.9h.954c9.855-.318,18.439-7.63,21.618-17.486a27.1,27.1,0,0,0,.954-7.312A26.456,26.456,0,0,0,90.607,8.9ZM33.382,25.116h0c0-.318-2.861-3.815-6.676-6.04a7.622,7.622,0,0,0-4.451-.636c-3.5,0-6.04,2.861-6.04,6.676a6.882,6.882,0,0,0,6.358,6.676,7.614,7.614,0,0,0,4.133-.954c3.815-1.908,6.676-5.4,6.676-5.723Zm29.249,0h0c0-.318,2.543-3.815,6.358-6.04,1.908-.636,3.5-.954,4.451-.636,3.815,0,6.358,2.861,6.358,6.676a6.882,6.882,0,0,1-6.358,6.676,7.094,7.094,0,0,1-4.133-.954c-3.815-1.908-6.676-5.4-6.676-5.723Z" fill="#ce4c51"/><path d="M347,50.746,353.994,18h6.676l-6.676,32.746Z" transform="translate(-236.682 -12.277)" fill="#ce4c51"/><path d="M412.983,66.434h-6.676l3.179-14.624a7.9,7.9,0,0,0,.318-2.543c0-1.908-.954-2.861-2.543-2.861-1.272,0-2.543.954-3.5,2.543a17.84,17.84,0,0,0-2.861,6.994l-2.225,10.491H392l5.4-25.116h5.087l-.318,4.769h0C404.4,42.59,406.942,41,410.121,41q3.338,0,4.769,1.908c1.272,1.272,1.59,2.861,1.59,5.087a19.556,19.556,0,0,1-.318,4.133Z" transform="translate(-267.376 -27.965)" fill="#ce4c51"/><path d="M465.133,56.78A16.8,16.8,0,0,1,461,56.462v-5.4a7.9,7.9,0,0,0,2.543.318,3.61,3.61,0,0,0,2.543-.954,4.03,4.03,0,0,0,1.272-2.861l4.769-21.618h-3.815l.636-3.179,4.133-1.908.636-1.908a11.906,11.906,0,0,1,2.861-6.04A9.493,9.493,0,0,1,482.936,11a13.179,13.179,0,0,1,5.087.954l-1.59,5.087a6.288,6.288,0,0,0-3.179-.636,2.687,2.687,0,0,0-1.908.636,6.391,6.391,0,0,0-1.272,2.543v1.272h4.769l-1.272,5.087H478.8l-4.769,22.572C472.763,54.237,469.9,56.78,465.133,56.78Zm24.8-41.647a5.371,5.371,0,0,1,.954-3.179A3.886,3.886,0,0,1,493.746,11a3.129,3.129,0,0,1,2.543.954,1.922,1.922,0,0,1,.954,1.908,3.886,3.886,0,0,1-.954,2.861,4.22,4.22,0,0,1-3.179.954C490.884,17.676,489.931,16.723,489.931,15.133Zm.318,30.838h-6.676l5.087-25.116h6.676Z" transform="translate(-314.439 -7.503)" fill="#ce4c51"/><path d="M595.3,66.434h-6.994l3.179-14.624a7.9,7.9,0,0,0,.318-2.543c0-1.908-.636-2.861-2.225-2.861a4.485,4.485,0,0,0-3.815,2.543,17.842,17.842,0,0,0-2.861,6.994l-1.907,10.491H574l5.4-25.116h5.087l-.318,4.769h0C586.4,42.59,588.942,41,592.121,41q3.338,0,4.769,1.908a6.712,6.712,0,0,1,1.908,5.087,21.883,21.883,0,0,1-.636,4.133Z" transform="translate(-391.514 -27.965)" fill="#ce4c51"/><path d="M667.358,15.133a5.649,5.649,0,0,1,1.272-3.179A3.886,3.886,0,0,1,671.491,11a3.129,3.129,0,0,1,2.543.954,1.922,1.922,0,0,1,.954,1.908,3.886,3.886,0,0,1-.954,2.861,4.746,4.746,0,0,1-3.179.954C668.63,17.676,667.358,16.723,667.358,15.133Zm.636,30.838H661l5.4-25.116h6.676Z" transform="translate(-450.855 -7.503)" fill="#ce4c51"/><path d="M717.538,50.434a16.405,16.405,0,0,0,3.5-.636v5.087a16.025,16.025,0,0,1-6.04.954c-2.225,0-3.815-.318-4.769-1.272a6.289,6.289,0,0,1-1.59-4.451,7.9,7.9,0,0,1,.318-2.543L711.5,35.491H708l.636-3.179,4.451-1.908,2.861-5.4H720.4l-.954,5.4h6.04l-.954,5.087h-6.358L715.63,47.572v1.272C715.63,49.8,716.266,50.434,717.538,50.434Z" transform="translate(-482.913 -17.052)" fill="#ce4c51"/><path d="M756.4,42h6.676l1.272,11.763c0,1.59.318,3.815.318,6.358h0a21.9,21.9,0,0,0,.954-2.543,30.976,30.976,0,0,1,1.59-3.5L772.936,42h7.312l-15.26,28.613c-2.543,5.087-6.358,7.312-10.809,7.312A8.86,8.86,0,0,1,751,77.607V72.2a7.9,7.9,0,0,0,2.543.318,5.371,5.371,0,0,0,3.179-.954,11.214,11.214,0,0,0,2.861-3.5l.318-.954Z" transform="translate(-512.243 -28.647)" fill="#ce4c51"/><path d="M519.451,138h1.272v.954h-1.59a2.886,2.886,0,0,0-2.225.954,5.371,5.371,0,0,0-.954,3.179v5.723H515V138h.954v2.225h.318a2.919,2.919,0,0,1,1.272-1.908A3.443,3.443,0,0,1,519.451,138Z" transform="translate(-351.272 -94.127)" fill="#2b2a29"/><path d="M542.087,149.127a5.068,5.068,0,0,1-3.815-1.272A6.39,6.39,0,0,1,537,143.723c0-1.908.318-3.179,1.272-4.133a3.728,3.728,0,0,1,3.5-1.59,3.1,3.1,0,0,1,2.861,1.272,4.781,4.781,0,0,1,1.272,3.5v.954h-7.948a4.342,4.342,0,0,0,1.272,3.5,3.886,3.886,0,0,0,2.861.954h1.59a5.369,5.369,0,0,0,1.59-.636v.954c-.318.318-.954.318-1.59.636Zm-.318-10.173a3.61,3.61,0,0,0-2.543.954,5.99,5.99,0,0,0-1.272,2.861h6.676c0-1.272,0-2.225-.636-2.861A2.886,2.886,0,0,0,541.769,138.954Z" transform="translate(-366.277 -94.127)" fill="#2b2a29"/><path d="M578.173,148.809l-2.225-6.994a20.249,20.249,0,0,1-.636-2.225h0l-.318.636-.318,1.59-2.543,6.994h-.954L568,138h.954l1.908,6.358a28.326,28.326,0,0,1,.636,3.5h.318a26.628,26.628,0,0,0,.636-3.179L574.676,138h.954l2.226,6.676a26.636,26.636,0,0,1,.636,3.179h.318c0-.318.318-1.59.636-3.5l1.59-6.358h1.272l-3.179,10.809Z" transform="translate(-387.422 -94.127)" fill="#2b2a29"/><path d="M624.312,148.809l-.318-1.59h0l-1.59,1.59a4.714,4.714,0,0,1-2.225.318,5.989,5.989,0,0,1-2.543-.636,3.426,3.426,0,0,1-.636-2.543,2.4,2.4,0,0,1,1.272-2.225q.954-.954,3.815-.954h1.908v-.954a2.682,2.682,0,0,0-.636-2.225c-.318-.636-.954-.636-1.908-.636a5.732,5.732,0,0,0-3.179.636l-.318-.636a7.247,7.247,0,0,1,3.5-.954,3.129,3.129,0,0,1,2.543.954,3.886,3.886,0,0,1,.954,2.861v6.994Zm-4.133-.636a3.886,3.886,0,0,0,2.861-.954,3.61,3.61,0,0,0,.954-2.543V143.4h-1.908c-1.59.318-2.543.318-3.179.954a1.922,1.922,0,0,0-.954,1.908,1.75,1.75,0,0,0,.636,1.59A2.382,2.382,0,0,0,620.179,148.173Z" transform="translate(-420.844 -94.127)" fill="#2b2a29"/><path d="M657.133,138h1.59v.954h-1.59a2.886,2.886,0,0,0-2.225.954,5.371,5.371,0,0,0-.954,3.179v5.723H653V138h.954v2.225h0c.636-.954.954-1.59,1.59-1.908A2.383,2.383,0,0,1,657.133,138Z" transform="translate(-445.399 -94.127)" fill="#2b2a29"/><path d="M679.451,128.451a4.714,4.714,0,0,1,2.225.318,6.932,6.932,0,0,1,1.272,1.59h.318a7,7,0,0,1-.318-2.543V124h.954v15.26h-.636v-1.59h-.318a3.652,3.652,0,0,1-3.5,1.907,4.781,4.781,0,0,1-3.5-1.272,7.214,7.214,0,0,1-.954-4.133,9.232,9.232,0,0,1,.954-4.451A4.342,4.342,0,0,1,679.451,128.451Zm0,.954a2.58,2.58,0,0,0-2.543,1.272,5.114,5.114,0,0,0-.954,3.5c0,3.179,1.272,4.451,3.5,4.451a3.886,3.886,0,0,0,2.861-.954,8.506,8.506,0,0,0,.636-3.5v-.318a8.506,8.506,0,0,0-.636-3.5A3.886,3.886,0,0,0,679.451,129.4Z" transform="translate(-460.405 -84.578)" fill="#2b2a29"/><path d="M719.63,146.266a2.4,2.4,0,0,1-1.272,2.225,6.348,6.348,0,0,1-2.861.636,8.508,8.508,0,0,1-3.5-.636v-.954a11.428,11.428,0,0,0,3.5.636c.954,0,1.907,0,2.225-.318.636-.636.954-.954.954-1.59a1.652,1.652,0,0,0-.636-1.272,13.828,13.828,0,0,0-2.226-1.272,7.6,7.6,0,0,1-2.225-.954q-.954-.477-.954-.954c-.318-.318-.318-.636-.318-1.272a2.748,2.748,0,0,1,.954-1.908,6.348,6.348,0,0,1,2.861-.636,11.3,11.3,0,0,1,3.179.636l-.318.954a7.223,7.223,0,0,0-5.087-.318,1.651,1.651,0,0,0-.636,1.272c0,.636,0,.954.636,1.272a10.224,10.224,0,0,0,2.225,1.272,15.5,15.5,0,0,1,2.225.954l.954.954C719.63,145.312,719.63,145.63,719.63,146.266Z" transform="translate(-485.642 -94.127)" fill="#2b2a29"/></svg>